<svg id="Layer_3" data-name="Layer 3" xmlns="http://www.w3.org/2000/svg" viewBox="0 0 170 54"><defs><style>.cls-1{fill:#fff;}</style></defs><title>logo</title><path class="cls-1" d="M41.051,1.442L20.562,54,0,1.442H41.051ZM20.562,31.289L28.42,9.8H12.631Z"/><path class="cls-1" d="M55.223,9.88V22.494h21.37v8.363H55.223V43.474h25.7v8.435H46.631V1.442H80.925V9.88h-25.7Z"/><path class="cls-1" d="M116.761,51.909L103.4,30.857H98.48V51.909h-8.6V22.494h8.152L89.883,9.88V1.442h17.111s17.184,0,17.184,14.708c0,8.94-6.316,12.472-11.309,13.842l13.952,21.917h-10.06ZM108.1,22.422c2.276-.216,7.491-1.3,7.491-6.272,0-6.273-8.592-6.273-8.592-6.273h-6.9Z"/><path class="cls-1" d="M158.471,46.069H140.406l-2.2,5.84H128.95L149.439,0,170,51.909h-9.253ZM143.2,38.788h12.48l-6.241-17.519Z"/></svg>