<svg id="Layer_4" data-name="Layer 4" xmlns="http://www.w3.org/2000/svg" viewBox="0 0 124 32"><defs><style>.cls-1{fill:none;}.cls-2{fill:#cc2973;}.cls-3{fill:#4555d2;}.cls-4{fill:#191e47;}</style></defs><title>logo</title><path class="cls-1" d="M21.752,8.866q-0.872,0-1.717-.053V27.873h0v0.067q0.832,0.074,1.721.073a23.8,23.8,0,0,0,5.811-.749A24.553,24.553,0,0,0,32.1,25.636V7.109q-1.266.429-2.594,0.766A31.729,31.729,0,0,1,21.752,8.866Z"/><path class="cls-1" d="M14.333,3.988a23.807,23.807,0,0,0-5.812.749,24.564,24.564,0,0,0-4.54,1.628V24.891q1.266-.431,2.594-0.766a31.724,31.724,0,0,1,7.758-.991q0.872,0,1.717.053V4.127h0V4.061Q15.221,3.987,14.333,3.988Z"/><path class="cls-2" d="M16.05,23.187q-0.847-.053-1.717-0.053a31.724,31.724,0,0,0-7.758.991q-1.327.335-2.594,0.766V6.364a24.564,24.564,0,0,1,4.54-1.628,23.807,23.807,0,0,1,5.812-.749q0.887,0,1.721.073V4.128a18.061,18.061,0,0,0,1.991.451c0.641,0.108,1.306.188,1.991,0.238V0.75a20.655,20.655,0,0,0-5.7-.75A27.83,27.83,0,0,0,7.548.87,27.221,27.221,0,0,0,0,3.995V31.117a27.221,27.221,0,0,1,7.548-3.125,27.869,27.869,0,0,1,6.785-.87q0.877,0,1.717.062v-4Z"/><path class="cls-3" d="M28.536,4.008a27.869,27.869,0,0,1-6.785.87q-0.877,0-1.717-.062c-0.685-.049-1.35-0.129-1.991-0.238a18.061,18.061,0,0,1-1.991-.451h0V31.25a20.651,20.651,0,0,0,5.7.75,27.834,27.834,0,0,0,6.785-.87,27.229,27.229,0,0,0,7.548-3.125V0.883A27.231,27.231,0,0,1,28.536,4.008ZM32.1,25.636a24.553,24.553,0,0,1-4.541,1.628,23.8,23.8,0,0,1-5.811.749q-0.887,0-1.721-.073V27.872h0V8.813q0.847,0.053,1.717.053a31.729,31.729,0,0,0,7.757-.991Q30.836,7.54,32.1,7.109V25.636Z"/><path class="cls-4" d="M53.22,5.2l5.1,9.978L63.5,5.2h4.34L60.327,18.681v7.236H56.336V18.623L48.85,5.2H53.22Z"/><path class="cls-4" d="M72.066,26.209A5.781,5.781,0,0,1,70,25.845a4.971,4.971,0,0,1-1.661-1.021,4.761,4.761,0,0,1-1.092-1.533,4.649,4.649,0,0,1-.393-1.926,4.246,4.246,0,0,1,.48-2,4.586,4.586,0,0,1,1.34-1.561A6.658,6.658,0,0,1,70.725,16.8a8.953,8.953,0,0,1,2.622-.365,11.288,11.288,0,0,1,1.995.175,8.124,8.124,0,0,1,1.733.5V16.231a3.068,3.068,0,0,0-.859-2.334,3.571,3.571,0,0,0-2.549-.817,6.741,6.741,0,0,0-2.389.438A11.12,11.12,0,0,0,68.891,14.8L67.7,12.321a11.259,11.259,0,0,1,6.35-1.955,7.433,7.433,0,0,1,5.112,1.619,5.94,5.94,0,0,1,1.821,4.683v4.756a1.373,1.373,0,0,0,.218.875,0.957,0.957,0,0,0,.714.292v3.326a8.675,8.675,0,0,1-1.719.2,2.6,2.6,0,0,1-1.7-.5,2.13,2.13,0,0,1-.743-1.312l-0.087-.847a6.761,6.761,0,0,1-2.476,2.042A7.089,7.089,0,0,1,72.066,26.209Zm1.107-2.86A5.081,5.081,0,0,0,75.051,23a3.407,3.407,0,0,0,1.383-.934,1.4,1.4,0,0,0,.641-1.108V19.206a9.573,9.573,0,0,0-1.514-.422,8.162,8.162,0,0,0-1.572-.161,4.163,4.163,0,0,0-2.477.686,2.058,2.058,0,0,0-.962,1.736,2.089,2.089,0,0,0,.757,1.648A2.745,2.745,0,0,0,73.173,23.35Z"/><path class="cls-4" d="M89.047,25.917L83.426,10.629h4.02l3.873,12.108,3.9-12.108h3.67L93.271,25.917H89.047Z"/><path class="cls-4" d="M101.659,8.5V4.619h3.9V8.5h-3.9Zm0,17.418V10.629h3.9V25.917h-3.9Z"/><path class="cls-4" d="M124,25.917h-3.9V17.339a4.479,4.479,0,0,0-.641-2.684,2.1,2.1,0,0,0-1.777-.846,3.342,3.342,0,0,0-1.195.233,4.4,4.4,0,0,0-1.151.657,5.308,5.308,0,0,0-.975,1.006,3.967,3.967,0,0,0-.641,1.284v8.928h-3.9V10.629h3.525v2.83a5.786,5.786,0,0,1,2.446-2.275,7.843,7.843,0,0,1,3.612-.817,4.6,4.6,0,0,1,2.33.525,3.8,3.8,0,0,1,1.4,1.371,5.778,5.778,0,0,1,.685,1.926A12.648,12.648,0,0,1,124,16.377v9.54Z"/></svg>